<svg width="180" height="21" viewBox="0 0 180 21" fill="none" xmlns="http://www.w3.org/2000/svg">
    <path fill-rule="evenodd" clip-rule="evenodd" d="M172.003 16.111c-1.721 0-2.971-1.28-2.971-3.042 0-1.763 1.25-3.042 2.971-3.042 1.72 0 2.969 1.28 2.969 3.042 0 1.762-1.249 3.042-2.969 3.042zm2.535-13.984v4.2a6.702 6.702 0 0 0-3.166-.78c-4.3 0-7.421 3.164-7.421 7.522 0 4.366 3.121 7.535 7.421 7.535 1.499 0 2.906-.522 3.976-1.46l.441.998h3.874V.907l-5.125 1.22zM156.84 13.83c0 1.31-.651 2.06-1.787 2.06-1.146 0-1.802-.75-1.802-2.06V5.935l-5.178 1.22v6.882c0 3.92 2.805 6.554 6.98 6.554 4.166 0 6.966-2.634 6.966-6.554V5.934l-5.179 1.22v6.677zM138.203 16.032c-1.68 0-2.852-1.218-2.852-2.963s1.172-2.963 2.852-2.963 2.852 1.219 2.852 2.964c0 1.745-1.172 2.962-2.852 2.962zm0-10.484c-4.58 0-7.903 3.162-7.903 7.52 0 4.36 3.323 7.522 7.903 7.522s7.903-3.163 7.903-7.521c0-4.359-3.323-7.52-7.903-7.52zM122.538 20.142h5.4V.91l-5.4 1.214v18.017zM111.221 15.549c-2.387 0-4.119-1.89-4.119-4.492 0-2.625 1.732-4.532 4.119-4.532 1.555 0 2.893.87 3.58 2.327l5.195-1.247c-1.291-3.77-4.658-6.11-8.786-6.11-5.507 0-9.661 4.11-9.661 9.562 0 5.435 4.154 9.533 9.661 9.533 4.538 0 8.108-2.83 9.097-7.208l.034-.147h-5.599c-.645 1.449-1.961 2.314-3.521 2.314zM87.059 10.363h-3.15V6.491h3.15a1.935 1.935 0 0 1 0 3.872zm4.556 3.28c2.134-.893 3.22-2.827 3.22-5.28 0-2.321-.846-4.037-2.515-5.103-1.55-.99-3.563-1.451-6.331-1.451h-7.752v18.37h5.761v-5.133h2.07l3.51 5.133h6.124l-4.644-6.302.557-.234zM66.712 13.2h8.373V8.788h-8.373V6.31h8.462V1.808H60.861v18.37h14.494v-4.502h-8.643V13.2zM48.526 13.887l-4.32-12.079h-6.123l7.202 18.37h6.483l7.202-18.37h-6.122l-4.322 12.08zM28.738 13.335l2.052-5.739 2.053 5.739h-4.105zM27.55 1.808l-7.203 18.37h6.122l.87-2.43h6.903l.87 2.43h6.122L34.03 1.809H27.55zM12.514 11.64 5.672 1.808H0v18.37h5.942v-9.831l6.843 9.832h5.672V1.809h-5.943v9.831z" fill="#fff"/>
</svg>
